<?xml version="1.0" encoding="utf-8"?>
<!-- Generator: Adobe Illustrator 27.4.0, SVG Export Plug-In . SVG Version: 6.00 Build 0)  -->
<svg version="1.1" id="Capa_1" xmlns="http://www.w3.org/2000/svg" xmlns:xlink="http://www.w3.org/1999/xlink" x="0px" y="0px"
	 viewBox="0 0 500 500" style="enable-background:new 0 0 500 500;" xml:space="preserve">
<style type="text/css">
	.st0{fill:#FFFFFF;}
</style>
<path class="st0" d="M99.08,134.63c0-8.84,3.3-17.44,9.29-24c6.7-7.34,16.24-11.55,26.17-11.55h47.6
	c18.07,0,33.21,13.48,35.22,31.36c1.19,10.52,3.35,20.97,6.44,31.06c3.86,12.63,0.51,26.24-8.75,35.5l-19.29,19.29
	c20.21,36.94,51.01,67.74,87.95,87.95L303,284.95c9.26-9.26,22.87-12.62,35.5-8.75c10.09,3.09,20.54,5.25,31.06,6.44
	c17.88,2.01,31.36,17.16,31.36,35.22v47.6c0,9.93-4.21,19.48-11.55,26.17c-7.37,6.72-17.3,10.05-27.25,9.14
	c-34.16-3.14-67.14-12.2-98.02-26.91c-30.03-14.3-57.22-33.52-80.83-57.13c-23.6-23.6-42.83-50.8-57.13-80.83
	c-14.71-30.89-23.77-63.87-26.91-98.03C99.12,136.8,99.08,135.71,99.08,134.63L99.08,134.63z M201.79,172"/>
</svg>
