<svg xmlns="http://www.w3.org/2000/svg" xmlns:xlink="http://www.w3.org/1999/xlink" viewBox="0 0 40.2 40.2"><defs><style>.cls-1{fill:url(#linear-gradient);}.cls-2{fill:url(#linear-gradient-2);}</style><linearGradient id="linear-gradient" y1="20.1" x2="40.2" y2="20.1" gradientUnits="userSpaceOnUse"><stop offset="0" stop-color="#4fc646"/><stop offset="1" stop-color="#3fb06b"/></linearGradient><linearGradient id="linear-gradient-2" x1="8.77" y1="20.1" x2="31.43" y2="20.1" xlink:href="#linear-gradient"/></defs><g id="Capa_2" data-name="Capa 2"><g id="Capa_12" data-name="Capa 12"><path class="cls-1" d="M20.1,40.2a20.11,20.11,0,1,1,14.21-5.89A20.13,20.13,0,0,1,20.1,40.2Zm0-38.56a18.46,18.46,0,1,0,0,36.91,18.45,18.45,0,0,0,13-31.5A18.31,18.31,0,0,0,20.1,1.64Z"/><path class="cls-2" d="M31.36,8.83,17.27,31.64a.76.76,0,0,1-1.26,0l-7.16-10a.41.41,0,0,1,.54-.6l6.78,4L30.7,8.34A.41.41,0,0,1,31.36,8.83Z"/></g></g></svg>