<?xml version="1.0" encoding="utf-8"?>
<!-- Generator: Adobe Illustrator 27.4.0, SVG Export Plug-In . SVG Version: 6.00 Build 0)  -->
<svg version="1.1" id="Capa_1" xmlns="http://www.w3.org/2000/svg" xmlns:xlink="http://www.w3.org/1999/xlink" x="0px" y="0px"
	 viewBox="0 0 500 500" style="enable-background:new 0 0 500 500;" xml:space="preserve">
<style type="text/css">
	.st0{fill:#FFFFFF;}
</style>
<path class="st0" d="M79.87,134.5c0.16-0.13,0.33-0.26,0.5-0.38c0.12-0.09,0.25-0.17,0.38-0.25c0.17-0.11,0.34-0.23,0.52-0.33
	c0.13-0.08,0.27-0.15,0.4-0.23c0.18-0.1,0.36-0.19,0.54-0.28c0.14-0.07,0.28-0.13,0.42-0.19c0.19-0.09,0.38-0.16,0.57-0.24
	c0.14-0.05,0.29-0.11,0.43-0.16c0.2-0.07,0.4-0.13,0.6-0.19c0.14-0.04,0.29-0.09,0.43-0.12c0.21-0.06,0.42-0.1,0.64-0.15
	c0.14-0.03,0.28-0.06,0.42-0.08c0.24-0.04,0.48-0.07,0.72-0.1c0.12-0.02,0.24-0.04,0.36-0.05c0.36-0.03,0.73-0.05,1.1-0.05H412.1
	c0.37,0,0.74,0.02,1.1,0.05c0.12,0.01,0.24,0.03,0.36,0.05c0.24,0.03,0.48,0.06,0.72,0.1c0.14,0.03,0.28,0.06,0.42,0.09
	c0.21,0.04,0.43,0.09,0.64,0.14c0.14,0.04,0.29,0.08,0.43,0.12c0.2,0.06,0.4,0.12,0.6,0.19c0.14,0.05,0.29,0.11,0.43,0.16
	c0.19,0.08,0.38,0.16,0.57,0.24c0.14,0.06,0.28,0.13,0.42,0.2c0.18,0.09,0.36,0.18,0.54,0.28c0.14,0.07,0.27,0.15,0.41,0.23
	c0.18,0.11,0.34,0.22,0.52,0.33c0.13,0.08,0.25,0.16,0.38,0.25c0.17,0.12,0.34,0.25,0.5,0.38c0.09,0.07,0.18,0.14,0.26,0.21
	L259.28,295.82c-2.48,2.48-5.77,3.84-9.28,3.84c-3.51,0-6.81-1.36-9.28-3.84L79.61,134.71C79.69,134.64,79.78,134.57,79.87,134.5
	L79.87,134.5z M74.75,167.03l83.08,83.08l-83.08,83.08V167.03z M412.1,368.29H88.11c-3.08,0-6.01-1.11-8.29-3l96.6-96.6l45.71,45.71
	c7.44,7.44,17.34,11.54,27.87,11.54c10.53,0,20.43-4.1,27.87-11.54l45.93-45.93l96.74,96.74
	C418.25,367.13,415.31,368.29,412.1,368.29L412.1,368.29z M425.25,332.75l-82.86-82.86l82.86-82.86V332.75z"/>
</svg>
