<?xml version="1.0" encoding="utf-8"?>
<!-- Generator: Adobe Illustrator 27.4.0, SVG Export Plug-In . SVG Version: 6.00 Build 0)  -->
<svg version="1.1" id="Capa_1" xmlns="http://www.w3.org/2000/svg" xmlns:xlink="http://www.w3.org/1999/xlink" x="0px" y="0px"
	 viewBox="0 0 500 500" style="enable-background:new 0 0 500 500;" xml:space="preserve">
<style type="text/css">
	.st0{fill:#D60515;}
	.st1{fill:#FFFFFF;}
</style>
<g>
	<path class="st0" d="M445.1,250c0-107.7-87.3-195.1-195.1-195.1S54.9,142.3,54.9,250c0,97.4,71.3,178.1,164.6,192.7V306.4H170V250
		h49.5v-43c0-48.9,29.1-75.9,73.7-75.9c21.3,0,43.7,3.8,43.7,3.8v48h-24.6c-24.2,0-31.8,15-31.8,30.5V250h54.1l-8.6,56.4h-45.5
		v136.3C373.7,428.1,445.1,347.4,445.1,250z"/>
	<path class="st1" d="M325.9,306.4l8.6-56.4h-54.1v-36.6c0-15.4,7.6-30.5,31.8-30.5h24.6v-48c0,0-22.3-3.8-43.7-3.8
		c-44.6,0-73.7,27-73.7,75.9v43H170v56.4h49.5v136.3c9.9,1.6,20.1,2.4,30.5,2.4c10.4,0,20.6-0.8,30.5-2.4V306.4H325.9z"/>
</g>
</svg>
