<?xml version="1.0" encoding="utf-8"?>
<!-- Generator: Adobe Illustrator 27.4.0, SVG Export Plug-In . SVG Version: 6.00 Build 0)  -->
<svg version="1.1" id="Capa_1" xmlns="http://www.w3.org/2000/svg" xmlns:xlink="http://www.w3.org/1999/xlink" x="0px" y="0px"
	 viewBox="0 0 500 500" style="enable-background:new 0 0 500 500;" xml:space="preserve">
<style type="text/css">
	.st0{fill-rule:evenodd;clip-rule:evenodd;fill:#FFFFFF;}
</style>
<path class="st0" d="M290.21,131.72c11.88-0.4,23.75-0.09,35.66-0.11c1.45,0,2.91,0,4.9,0v-61.8c-6.35-0.63-12.99-1.55-19.63-1.87
	c-12.18-0.54-24.39-1.15-36.59-0.87c-18.63,0.39-36.25,4.93-51.64,15.96c-17.65,12.7-27.35,30.53-31.04,51.6
	c-1.53,8.69-1.92,17.69-2.15,26.52c-0.34,13.87-0.07,27.74-0.05,41.62v5.19h-59.14V277h58.8v173.53h71.85V277.28h58.6
	c3.01-22.95,5.94-45.69,9.02-69.36c-4.71,0-8.94-0.01-13.17,0c-16.66,0.07-54.92,0-54.92,0s0.16-34.22,0.57-49.07
	C261.85,138.52,273.91,132.31,290.21,131.72z"/>
</svg>
