<?xml version="1.0" encoding="utf-8"?>
<!-- Generator: Adobe Illustrator 27.4.0, SVG Export Plug-In . SVG Version: 6.00 Build 0)  -->
<svg version="1.1" id="Capa_1" xmlns="http://www.w3.org/2000/svg" xmlns:xlink="http://www.w3.org/1999/xlink" x="0px" y="0px"
	 viewBox="0 0 500 500" style="enable-background:new 0 0 500 500;" xml:space="preserve">
<style type="text/css">
	.st0{fill:#FFFFFF;}
</style>
<path class="st0" d="M458.44,211.43c-14.78-77.38-77.18-139.77-154.56-154.56C165.47,30.44,45.76,150.15,72.2,288.57
	c14.78,77.38,77.18,139.77,154.56,154.56C365.17,469.56,484.88,349.85,458.44,211.43z M356.52,341.2c-4.8,4.8-11.1,7.21-17.39,7.21
	s-12.59-2.4-17.39-7.21l-73.8-73.8c-4.61-4.61-7.21-10.86-7.21-17.39v-98.4c0-13.6,11.02-24.6,24.6-24.6c13.59,0,24.6,11,24.6,24.6
	v88.22l66.6,66.6C366.13,316.02,366.13,331.59,356.52,341.2z"/>
</svg>
