<?xml version="1.0" encoding="utf-8"?>
<!-- Generator: Adobe Illustrator 27.4.0, SVG Export Plug-In . SVG Version: 6.00 Build 0)  -->
<svg version="1.1" id="Capa_1" xmlns="http://www.w3.org/2000/svg" xmlns:xlink="http://www.w3.org/1999/xlink" x="0px" y="0px"
	 viewBox="0 0 500 500" style="enable-background:new 0 0 500 500;" xml:space="preserve">
<style type="text/css">
	.st0{fill:#D60515;}
	.st1{fill:#FFFFFF;}
</style>
<g>
	<circle class="st0" cx="250" cy="250" r="195.1"/>
	<g>
		<g>
			<path class="st1" d="M250,149.3c32.8,0,36.7,0.1,49.6,0.7c12,0.6,18.5,2.6,22.8,4.2c5.7,2.2,9.8,4.9,14.1,9.2
				c4.3,4.3,7,8.4,9.2,14.1c1.7,4.3,3.7,10.8,4.2,22.8c0.6,12.9,0.7,16.8,0.7,49.6s-0.1,36.7-0.7,49.6c-0.5,12-2.5,18.5-4.2,22.8
				c-2.2,5.7-4.9,9.8-9.2,14.1c-4.3,4.3-8.4,7-14.1,9.2c-4.3,1.7-10.8,3.7-22.8,4.2c-13,0.6-16.8,0.7-49.6,0.7s-36.7-0.1-49.6-0.7
				c-12-0.5-18.5-2.5-22.8-4.2c-5.7-2.2-9.8-4.9-14.1-9.2c-4.3-4.3-7-8.4-9.2-14.1c-1.7-4.3-3.7-10.8-4.2-22.8
				c-0.6-13-0.7-16.8-0.7-49.6s0.1-36.7,0.7-49.6c0.6-12,2.6-18.5,4.2-22.8c2.2-5.7,4.9-9.8,9.2-14.1c4.3-4.3,8.4-7,14.1-9.2
				c4.3-1.7,10.8-3.7,22.8-4.2C213.3,149.4,217.2,149.3,250,149.3 M250,127.2c-33.4,0-37.5,0.1-50.6,0.7c-13.1,0.6-22,2.7-29.8,5.7
				c-8.1,3.1-14.9,7.3-21.8,14.2s-11,13.7-14.2,21.8c-3,7.8-5.1,16.7-5.7,29.8c-0.6,13.1-0.7,17.3-0.7,50.6s0.1,37.5,0.7,50.6
				c0.6,13.1,2.7,22,5.7,29.8c3.1,8.1,7.3,14.9,14.2,21.8c6.8,6.8,13.7,11,21.8,14.2c7.8,3,16.7,5.1,29.8,5.7
				c13.1,0.6,17.3,0.7,50.6,0.7s37.5-0.1,50.6-0.7c13.1-0.6,22-2.7,29.8-5.7c8.1-3.1,14.9-7.3,21.8-14.2c6.8-6.8,11-13.7,14.2-21.8
				c3-7.8,5.1-16.7,5.7-29.8c0.6-13.1,0.7-17.3,0.7-50.6s-0.1-37.5-0.7-50.6c-0.6-13.1-2.7-22-5.7-29.8c-3.1-8.1-7.3-14.9-14.2-21.8
				c-6.8-6.8-13.7-11-21.8-14.2c-7.8-3-16.7-5.1-29.8-5.7C287.5,127.3,283.4,127.2,250,127.2L250,127.2z"/>
			<path class="st1" d="M250,186.9c-34.8,0-63.1,28.2-63.1,63.1s28.2,63.1,63.1,63.1s63.1-28.2,63.1-63.1S284.8,186.9,250,186.9z
				 M250,290.9c-22.6,0-40.9-18.3-40.9-40.9s18.3-40.9,40.9-40.9s40.9,18.3,40.9,40.9S272.6,290.9,250,290.9z"/>
			<circle class="st1" cx="315.6" cy="184.4" r="14.7"/>
		</g>
	</g>
</g>
</svg>
