<?xml version="1.0" encoding="utf-8"?>
<!-- Generator: Adobe Illustrator 27.4.0, SVG Export Plug-In . SVG Version: 6.00 Build 0)  -->
<svg version="1.1" id="Capa_1" xmlns="http://www.w3.org/2000/svg" xmlns:xlink="http://www.w3.org/1999/xlink" x="0px" y="0px"
	 viewBox="0 0 500 500" style="enable-background:new 0 0 500 500;" xml:space="preserve">
<style type="text/css">
	.st0{fill:#FFFFFF;}
</style>
<path class="st0" d="M437.92,157.24c-2.57-25.15-12.21-47.4-30.9-65.23c-19.66-18.77-43.71-27.05-70.08-28.46
	c-44.92-2.45-151.58-4-189.03,2.11c-42.79,6.97-70.85,31.95-82.68,74.22c-9.11,32.52-7.3,182.4-1.98,214.54
	c7.25,43.95,33.22,72.14,76.78,83.36c30.15,7.78,178.3,6.79,211.55,1.4c43.99-7.11,72.28-32.94,83.72-76.43
	C444.03,329.38,440.98,187.35,437.92,157.24z M402.74,348.21c-5.11,33.39-27.27,54.06-60.83,57.73
	c-30.83,3.38-168.5,5.24-197.09-2.76c-27.35-7.65-42.99-26.45-47.54-53.99c-4.33-26.3-5.41-157.7-0.06-192.87
	c5.04-33.1,27.19-53.75,60.56-57.48c33.86-3.79,155.69-4.21,188.13,0.76c33.31,5.11,53.96,27.32,57.62,60.93
	C406.94,191.91,407.91,314.5,402.74,348.21z M249.96,154.45c-54.12-0.03-98.02,43.82-98.05,97.94
	c-0.03,54.12,43.82,98.02,97.94,98.05c54.12,0.03,98.02-43.82,98.05-97.94C347.93,198.38,304.08,154.48,249.96,154.45z
	 M249.28,315.75c-35-0.31-63.11-28.94-62.8-63.94c0.31-35,28.94-63.12,63.94-62.8c35,0.32,63.12,28.94,62.8,63.94
	C312.91,287.95,284.28,316.07,249.28,315.75z M374.72,150.74c-0.03,12.67-10.33,22.92-23,22.89c-12.67-0.03-22.92-10.33-22.89-23
	c0.03-12.67,10.33-22.92,23-22.89C364.51,127.77,374.75,138.07,374.72,150.74z"/>
</svg>
