<svg xmlns="http://www.w3.org/2000/svg" viewBox="0 0 89.46 62.34"><defs><style>.cls-1{fill:#323276;stroke:#2e2e79;stroke-miterlimit:10;stroke-width:0.35px;}.cls-2{fill:#2e2e79;}</style></defs><g id="Capa_2" data-name="Capa 2"><g id="afiliación"><path class="cls-1" d="M89.26,56.59s0-.07,0-.1a1.42,1.42,0,0,0,0-.16.36.36,0,0,0,0-.09,1.3,1.3,0,0,0-.08-.17s0,0,0-.06a1.46,1.46,0,0,0-.16-.19l-.05,0-.15-.12-.09,0a.33.33,0,0,0-.1-.06L77.61,50.16V1.61A1.44,1.44,0,0,0,76.17.17H12.93A1.44,1.44,0,0,0,11.5,1.61V50.17L1,55.54l-.09.06-.09,0-.13.12s-.05,0-.06,0a1.06,1.06,0,0,0-.17.2v0a1.28,1.28,0,0,0-.11.2l0,.08a1.42,1.42,0,0,0-.05.16.44.44,0,0,0,0,.1,1.1,1.1,0,0,0,0,.18s0,0,0,.06v3.9a1.44,1.44,0,0,0,1.44,1.43H87.84a1.43,1.43,0,0,0,1.44-1.43v-4C89.27,56.71,89.27,56.65,89.26,56.59ZM6.28,55l7-3h63l7,3ZM13.37,2.05H75.73V49.61H13.37ZM87.28,60h-85V57h85Z"/><path class="cls-1" d="M68.57,6.11h-48A1.44,1.44,0,0,0,19.1,7.55V39.94a1.43,1.43,0,0,0,1.43,1.43h48A1.43,1.43,0,0,0,70,39.94V7.55A1.44,1.44,0,0,0,68.57,6.11ZM68.28,39h-47V8h47Z"/><path class="cls-1" d="M45.13,42.19a3.09,3.09,0,1,0,3.09,3.09A3.09,3.09,0,0,0,45.13,42.19Zm0,4.45a1.37,1.37,0,1,1,1.36-1.36A1.37,1.37,0,0,1,45.13,46.64Z"/><path class="cls-2" d="M46,22.93c1.13-.91,2.27-1.83,3.42-2.71a14,14,0,0,1,1.81-1.31,5.18,5.18,0,0,1,2.23-.63,5.58,5.58,0,0,1,5.77,6.28,5.72,5.72,0,0,1-2.56,4.13,5.86,5.86,0,0,1-4.88.72,6.15,6.15,0,0,1-1.18-.5c-.18-.1-.37-.22-.53-.33l-.45-.31L47.81,27l-3.58-2.49L40.66,22l-1.78-1.26a6.25,6.25,0,0,0-1.65-1,4.26,4.26,0,0,0-3.46.37,4.13,4.13,0,0,0-2,2.88,4.31,4.31,0,0,0,.86,3.49,4.57,4.57,0,0,0,3.3,1.67,4.26,4.26,0,0,0,1.89-.34,5,5,0,0,0,.88-.47l.94-.57c1.25-.75,2.48-1.52,3.77-2.23-1.08,1-2.21,1.91-3.33,2.86l-.83.71a5.3,5.3,0,0,1-1,.63,5.49,5.49,0,0,1-2.33.58,5.73,5.73,0,0,1-4.37-1.92,5.87,5.87,0,0,1,6.27-9.4A7.75,7.75,0,0,1,40,19.25l1.79,1.24L45.31,23l3.56,2.52,1.77,1.27.44.32c.14.09.26.18.39.25a4.34,4.34,0,0,0,.82.38,4.31,4.31,0,0,0,5.53-3.38,4.46,4.46,0,0,0-.94-3.58,4.71,4.71,0,0,0-3.43-1.69,4.52,4.52,0,0,0-2,.36,14,14,0,0,0-1.82,1.1C48.44,21.37,47.2,22.15,46,22.93Z"/></g></g></svg>