<svg xmlns="http://www.w3.org/2000/svg" viewBox="0 0 39.62 56.06"><defs><style>.cls-1{fill:#323276;}</style></defs><g id="Capa_2" data-name="Capa 2"><g id="afiliación"><path class="cls-1" d="M19.8,34.17a4.06,4.06,0,0,0-4,4,4,4,0,0,0,1.34,3V46a1.23,1.23,0,0,0,1.23,1.23h3A1.24,1.24,0,0,0,22.52,46V41.24a3.94,3.94,0,0,0,1.32-3A4.06,4.06,0,0,0,19.8,34.17Zm.87,5.38a1.23,1.23,0,0,0-.62,1.06v4.13h-.49V40.61A1.22,1.22,0,0,0,19,39.55a1.48,1.48,0,0,1-.73-1.33A1.58,1.58,0,0,1,19,36.85a1.54,1.54,0,0,1,1.58,0,1.58,1.58,0,0,1,.79,1.37A1.5,1.5,0,0,1,20.67,39.55Z"/><path class="cls-1" d="M33.47,20H32.11v-7.3a12.74,12.74,0,0,0-25.47,0V20H6.15a6.18,6.18,0,0,0-4.34,1.78A6.1,6.1,0,0,0,0,26.12V49.87a6.19,6.19,0,0,0,6.15,6.19H33.47a6.19,6.19,0,0,0,6.15-6.19V26.12A6.13,6.13,0,0,0,33.47,20ZM9.1,12.71a10.28,10.28,0,0,1,20.55,0V20H9.1Zm28.06,37.2a3.69,3.69,0,0,1-3.69,3.69H6.15a3.69,3.69,0,0,1-3.69-3.69V26.17a3.7,3.7,0,0,1,3.69-3.7H33.47a3.7,3.7,0,0,1,3.69,3.7Z"/></g></g></svg>