<svg xmlns="http://www.w3.org/2000/svg" viewBox="0 0 58.7 58.7"><defs><style>.cls-1{fill:#323276;stroke:#323276;stroke-miterlimit:10;stroke-width:0.49px;}</style></defs><g id="Capa_2" data-name="Capa 2"><g id="afiliación"><path class="cls-1" d="M57.49,52.63H54.57V34.2a1,1,0,0,0-.67-.92,1,1,0,0,0-1.09.36L39.23,53.05a1,1,0,0,0-.07,1,1,1,0,0,0,.86.52H52.63v2.92a1,1,0,0,0,1.94,0V54.57h2.92a1,1,0,0,0,0-1.94ZM52.63,37.28V52.63H41.88Z"/><path class="cls-1" d="M40,56.51H28.54L39.21,43.94l.07-.09a6.75,6.75,0,0,0-1.52-9.16A7.76,7.76,0,0,0,25.47,41a1,1,0,1,0,1.94,0,5.82,5.82,0,0,1,9.22-4.73,4.79,4.79,0,0,1,1.06,6.47l-12,14.13a1,1,0,0,0-.14,1,1,1,0,0,0,.88.57H40a1,1,0,0,0,0-2Z"/><path class="cls-1" d="M26.46,51.68a1,1,0,0,0-.93-1A24.22,24.22,0,0,1,2.22,27.41H6.06a1,1,0,0,0,0-1.94H2.22A24.18,24.18,0,0,1,25.47,2.22V5.09a1,1,0,0,0,1.94,0V2.22A24.22,24.22,0,0,1,50.65,25l-3.79-3.79a1,1,0,0,0-1.37,1.38L50.91,28a.88.88,0,0,0,.38.28l.11,0,.21.05h.06l.21,0,.12,0a.87.87,0,0,0,.35-.22l5.49-5.48a1,1,0,0,0-1.37-1.38l-3.88,3.88A26.15,26.15,0,0,0,26.51.26l-.07,0-.07,0A26.15,26.15,0,0,0,.26,26.37s0,0,0,.07,0,0,0,.07A26.17,26.17,0,0,0,25.45,52.62h0A1,1,0,0,0,26.46,51.68Z"/><path class="cls-1" d="M39.47,13.4a1,1,0,0,0-1.37,0L27.68,23.83a3.06,3.06,0,0,0-2.48,0l-4.94-4.94a1,1,0,0,0-1.37,1.37l4.93,4.93a2.91,2.91,0,1,0,5.24,0L39.47,14.78A1,1,0,0,0,39.47,13.4ZM27.12,27.12a1,1,0,0,1-1.37,0,1,1,0,1,1,1.37,0Z"/></g></g></svg>