<?xml version="1.0" encoding="utf-8"?>
<!-- Generator: Adobe Illustrator 27.4.0, SVG Export Plug-In . SVG Version: 6.00 Build 0)  -->
<svg version="1.1" id="Capa_1" xmlns="http://www.w3.org/2000/svg" xmlns:xlink="http://www.w3.org/1999/xlink" x="0px" y="0px"
	 viewBox="0 0 586.5 244.6" style="enable-background:new 0 0 586.5 244.6;" xml:space="preserve">
<style type="text/css">
	.st0{fill:#FFFFFF;}
	.st1{fill:#13137F;}
	.st2{display:none;}
</style>
<g id="Final">
</g>
<g id="Contenido">
	<path class="st0" d="M575.6,204.9l-8.9-37.4c-2.5-10.6-11.9-18-22.7-18h-12.3c-4.1,0-8.1,1.1-11.6,3.1c-2.6-1.1-5.3-2-8.2-2.7
		c-3.7-0.8-7.6-1.3-11.6-1.4c0.1-0.4,0.2-0.8,0.3-1.1l0.3-1.6c9.5-1.5,17.3-8.8,19.3-18.5l6.2-30.7c1.4-6.8-0.4-14-4.8-19.4
		c-1.9-2.3-4.3-4.3-6.9-5.7c-0.5-4.4-2.3-8.7-5.2-12.2c-2.5-3.1-5.8-5.5-9.4-6.9l10-11.9c5.9-6.9,7.2-16.6,3.4-24.9
		c-3.8-8.2-12.1-13.5-21.2-13.5h-42c-6.7,0-13.2,2.9-17.6,8l-63,72.2c-1.8,2.1-3.2,4.4-4.2,6.9c-4.2-4.1-10-6.6-16.2-6.6H337
		c-5.9,0-11.4,2.2-15.6,6c-1.3-0.8-2.6-1.5-4-2.1c-5.8-2.7-12.5-4-19.7-4h-0.9c1.1-2,1.9-4.1,2.3-6.4l1.9-9.5
		c1.4-6.8-0.4-13.9-4.8-19.4s-11.1-8.6-18.1-8.6h-30.2c-3.8,0-7.5,1-10.7,2.7c-5-1.8-10.5-2.7-16.4-2.7H204c-2.9,0-5.8,0.6-8.4,1.6
		l2.1-10.4c1.4-6.9-0.4-14-4.8-19.4c-4.5-5.5-11.1-8.6-18.1-8.6H87.2c-11.1,0-20.7,7.8-22.9,18.7l-6,29.9c-1.4,6.8,0.4,14,4.8,19.4
		c3.6,4.5,8.7,7.4,14.3,8.3l-0.8,4.2c-7,0.6-13.6,4.2-17.7,10.5l-18,27.5c-7,10.8-4,25.2,6.7,32.3c2.6,1.7,5.3,3.3,8.1,4.8
		c-0.1,0.1-0.1,0.2-0.2,0.2h-0.1c-0.7,0-1.4,0-2.1,0.1c-2.2-0.4-4.5-0.6-6.9-0.6c-5.4,0-10.6,1.1-15.5,3.3c-4.6,2-8.8,5-12.3,8.7
		c-3.4,3.7-6.2,7.9-8.1,12.7s-2.9,10-2.9,15.4c0,7.2,1.7,13.6,5.1,19.3c3.3,5.5,7.8,9.9,13.2,13c5.4,3,11.2,4.6,17.2,4.6
		c2.1,0,4.2-0.2,6.2-0.5c0.4,0,0.7,0,1.1,0h11.4c0.9,0,1.7-0.1,2.6-0.2c0.9,0.1,1.8,0.2,2.7,0.2h12.1c2.4,0,4.8-0.4,7-1.1
		c3.4,1.1,7,1.6,10.9,1.6c2.2,0,4.3-0.2,6.7-0.5c0.5,0.1,1.1,0.1,1.6,0.1h11.4c1,0,2-0.1,2.9-0.2c0.7,0.1,1.4,0.1,2.2,0.1h12.2
		c1.2,0,2.3-0.1,3.5-0.3c1.1,0.2,2.3,0.3,3.5,0.3h12.1c1.2,0,2.3-0.1,3.5-0.3c1.1,0.2,2.3,0.3,3.5,0.3v-0.1H172c0.8,0,1.5,0,2.3-0.1
		c1,0.1,2.1,0.2,3.1,0.2h12.1c1.4,0,2.8-0.2,4.1-0.4c1.4,0.3,2.7,0.4,4.1,0.4v-0.1h11.9c3,0,5.8-0.6,8.5-1.6
		c4.4,1.5,9.1,2.2,14.1,2.2c5.2,0,10.1-0.8,14.6-2.4c1.3,0.4,2.6,0.8,4.1,1.1c4,0.9,8.2,1.3,12.5,1.3c5.4,0,10.6-0.8,15.3-2.3
		c2-0.6,4-1.4,5.8-2.4c3.9,2.7,8.5,4.2,13.3,4.2h12.6c1,0,2-0.1,3-0.2c1,0.1,2.1,0.2,3.2,0.2H329c2.5,0,4.8-0.4,7.1-1.1
		c2.3,0.7,4.7,1.1,7.1,1.1h10.4c3.6,0,7-0.8,10.1-2.3c5.3,2.1,11.1,3.1,17.2,3.1c4.7,0,9.4-0.6,13.7-1.7c2,0.6,4.2,0.9,6.3,0.9h12.6
		c1.7,0,3.4-0.2,5.1-0.6c1.6,0.4,3.4,0.6,5.1,0.6H437c0.6,0,1.2,0,1.8-0.1c0.6,0,1.2,0.1,1.8,0.1v-0.1h31.2c1.9,0,3.8-0.3,5.6-0.7
		c1.3,0.3,2.7,0.6,4.1,0.8c3.2,0.5,6.6,0.8,10,0.8c4.2,0,8.1-0.4,11.8-1.2c1.5,0.3,3,0.4,4.5,0.4h13.3c3.4,0,6.6-0.8,9.6-2.1
		c2.9,1.4,6.2,2.1,9.6,2.1v0.1h12.6c7.1,0,13.9-3.3,18.3-8.9C575.6,219.2,577.2,211.9,575.6,204.9z M416.1,146.3
		c0.1,1,0.4,2.1,0.7,3.1h-8.4c-2.6,0-5.2,0.5-7.6,1.3c-4.6-1.4-9.7-2.2-15-2.2c-1.7,0-3.4,0.1-5.1,0.2c0.2-0.8,0.4-1.6,0.5-2.5
		c0.4,0,0.7,0,1.1,0L416.1,146.3L416.1,146.3z M153,157.5c7.6-4.1,14.2-9.2,19.6-15.2c0.9,2.1,1.9,4.2,3.1,6.2
		c2.2,3.5,4.9,6.5,8,9.1h-0.6c-2.4,0-4.7,0.4-6.9,1.1c-3.4-1.1-7-1.7-10.7-1.7c-3.3,0-6.5,0.4-9.6,1.2
		C155,157.9,154,157.7,153,157.5z"/>
	<g>
		<polygon class="st1" points="439.3,143.2 477.8,143.2 481.8,123 497.4,123 503.6,92.3 488,92.3 491.5,74.3 454.9,74.3 451.4,92.3 
			436,92.3 492.4,25.6 450.4,25.6 387.5,97.8 382.4,123 443.4,123 		"/>
		<path class="st1" d="M105.8,145.4c11.3,0,21.5-1.9,30.5-5.7c9-3.8,16.1-9,21.3-15.7c5.2-6.7,7.8-14.2,7.8-22.6
			c0-6.4-1.7-11.9-5-16.6c-3.3-4.7-7.9-8.3-13.9-10.9c-1.1-0.5-2.2-0.9-3.3-1.2L170,49.5l4.9-24.3H87.2l-6,29.9h41.6l-20.4,17.6
			L97.4,97h16.3c4,0,7,0.6,8.9,1.8c1.9,1.2,2.9,2.9,2.9,5.3c0,2.1-0.6,3.9-1.9,5.5c-1.3,1.5-3.2,2.7-5.7,3.4
			c-2.5,0.8-5.6,1.2-9.3,1.2c-4.8,0-9.9-0.7-15.2-2.1c-5.3-1.4-10.3-3.6-14.9-6.5l-18,27.5c6.3,4.1,13.3,7.2,21.1,9.2
			C89.3,144.4,97.4,145.4,105.8,145.4z"/>
		<path class="st1" d="M225.9,97.7c2.8-1,5.3-2.4,7.4-4.3s3.7-4.1,4.8-6.8c1.2-2.6,1.7-5.6,1.7-8.9c0-3.3-0.8-6.1-2.3-8.4
			c-1.5-2.4-3.7-4.2-6.5-5.4c-2.8-1.3-6.2-1.9-10.2-1.9H204l-7.4,37.2h19.9C219.9,99.2,223,98.7,225.9,97.7z M214.6,71.8h4.8
			c1.7,0,3.1,0.3,4.3,0.8c1.2,0.5,2,1.3,2.6,2.3c0.6,1,0.9,2.2,0.9,3.7c0,2-0.4,3.9-1.2,5.5c-0.8,1.6-1.9,3-3.4,3.9
			c-1.5,1-3.4,1.5-5.6,1.5h-5.8L214.6,71.8z"/>
		<polygon class="st1" points="273.3,89.8 254.7,89.8 255.7,84.9 271.4,84.9 273.2,75.8 257.5,75.8 258.3,71.5 276.3,71.5 278.2,62 
			247.9,62 240.5,99.2 271.4,99.2 		"/>
		<path class="st1" d="M202.2,141.9c2.9,1.4,6.2,2.1,10,2.1c3.4,0,6.5-0.5,9.3-1.6c2.8-1.1,5.3-3,7.6-5.8l-7.4-7.1
			c-1.3,1.5-2.6,2.6-4,3.3c-1.4,0.7-2.8,1-4.3,1c-1.5,0-2.9-0.3-4-0.9c-1.2-0.6-2-1.5-2.7-2.6s-1-2.4-1-3.8c0-1.7,0.2-3.2,0.7-4.6
			c0.5-1.4,1.2-2.6,2.1-3.6c0.9-1,1.9-1.8,3.2-2.3c1.2-0.5,2.6-0.8,4.1-0.8c1.7,0,3.2,0.4,4.4,1.1c1.2,0.8,2.2,1.8,3,3.2l9-7.1
			c-1.3-2.4-3.4-4.3-6.2-5.5s-5.9-1.9-9.5-1.9c-3.4,0-6.6,0.5-9.5,1.6c-2.9,1.1-5.4,2.6-7.4,4.6c-2.1,2-3.7,4.3-4.9,7.1
			c-1.2,2.7-1.7,5.7-1.7,9c0,3.3,0.8,6.2,2.4,8.7C197.1,138.6,199.4,140.5,202.2,141.9z"/>
		<path class="st1" d="M226.1,143.2h13.2l3.7-6.5h14.2l1.2,6.5H271l-8.8-37.2h-12.3L226.1,143.2z M248.2,127.7l5.4-9.5l1.8,9.5
			H248.2z"/>
		<path class="st1" d="M309.6,137.4c2.1-1.9,3.7-4.1,4.8-6.8c1.2-2.6,1.7-5.6,1.7-8.9c0-3.3-0.8-6.1-2.3-8.4
			c-1.5-2.4-3.7-4.2-6.5-5.4c-2.8-1.3-6.2-1.9-10.2-1.9h-16.8l-7.4,37.2h19.9c3.4,0,6.5-0.5,9.4-1.5
			C305.1,140.7,307.5,139.3,309.6,137.4z M298.9,131.9c-1.5,1-3.4,1.5-5.6,1.5h-5.8l3.5-17.6h4.8c1.7,0,3.1,0.3,4.3,0.8
			c1.2,0.5,2,1.3,2.6,2.3c0.6,1,0.9,2.2,0.9,3.7c0,2-0.4,3.9-1.2,5.5S300.4,131,298.9,131.9z"/>
		<path class="st1" d="M325.5,143.2l3.7-6.5h14.2l1.2,6.5h12.5l-8.8-37.2H336l-23.7,37.2H325.5z M339.9,118.2l1.8,9.5h-7.3
			L339.9,118.2z"/>
		<path class="st1" d="M55.7,181l-0.6,3.1c-0.7-1-1.5-1.7-2.4-2.2c-1.7-0.9-3.7-1.4-5.9-1.4c-2.1,0-4.1,0.4-6,1.3
			c-1.9,0.8-3.5,2-5,3.5c-1.4,1.5-2.6,3.3-3.4,5.3c-0.8,2-1.2,4.3-1.2,6.7c0,2.9,0.6,5.3,1.8,7.4c1.2,2,2.7,3.5,4.6,4.6
			c1.9,1.1,3.7,1.6,5.7,1.6c2.4,0,4.5-0.6,6.3-1.8c0.6-0.4,1.1-0.9,1.7-1.4l-0.5,2.7h11.4l5.8-29.3H55.7z M50.5,200.4
			c-0.8,0.6-1.7,0.8-2.8,0.8c-1.4,0-2.4-0.4-3.2-1.3c-0.8-0.9-1.1-2-1.1-3.3c0-1.4,0.2-2.5,0.7-3.5c0.4-1,1.1-1.8,1.9-2.3
			s1.7-0.8,2.8-0.8c1.4,0,2.4,0.4,3.2,1.3c0.8,0.9,1.1,2,1.1,3.3c0,1.4-0.2,2.5-0.7,3.5C51.9,199.1,51.3,199.8,50.5,200.4z"/>
		<polygon class="st1" points="75.1,170.5 67.2,210.2 79.3,210.2 87.2,170.5 		"/>
		<path class="st1" d="M110.4,181l-2.8,14.1c-0.4,1.9-1,3.3-1.9,4.2s-2,1.4-3.4,1.4c-1.2,0-2.1-0.4-2.5-1.3
			c-0.5-0.8-0.5-2.1-0.2-3.7l2.9-14.7H90.4l-3.2,16.2c-0.6,3-0.5,5.6,0.2,7.6c0.7,2,2,3.5,3.7,4.5c1.7,1,3.8,1.5,6.1,1.5
			c2,0,4-0.5,6-1.6c1-0.5,1.8-1.1,2.6-1.9l-0.6,2.9h11.4l5.8-29.3H110.4z"/>
		<path class="st1" d="M171.7,181.9c-1.7-1-3.6-1.5-5.9-1.5c-2.7,0-5.1,0.7-7.2,2c-1.1,0.7-2.1,1.6-3,2.6c-0.2-0.3-0.4-0.6-0.6-0.9
			c-1-1.3-2.1-2.2-3.6-2.8c-1.4-0.6-2.9-0.9-4.5-0.9c-2,0-4,0.5-5.9,1.6c-0.9,0.5-1.7,1.1-2.4,1.8l0.6-2.9h-11.4l-5.8,29.3h12.1
			l2.8-14.3c0.4-2,1-3.3,1.8-4.1c0.8-0.8,1.8-1.2,2.9-1.2c1,0,1.7,0.4,2.2,1.2c0.5,0.8,0.6,2.1,0.2,3.8l-2.9,14.6h12.1l2.9-14.5
			c0.4-1.9,1-3.2,1.8-4c0.8-0.8,1.8-1.2,2.9-1.2c1,0,1.7,0.4,2.2,1.2c0.5,0.8,0.6,2.1,0.2,3.8l-2.9,14.6h12.1l3.2-16.2
			c0.6-3,0.5-5.6-0.2-7.6C174.6,184.5,173.4,183,171.7,181.9z"/>
		<path class="st1" d="M209.3,181.9c-1.7-1-3.8-1.5-6.2-1.5c-2,0-4,0.5-6.1,1.6c-1,0.5-1.9,1.1-2.7,1.9l0.6-2.9h-11.4l-5.8,29.3
			h12.1l2.8-14.1c0.4-1.9,1.1-3.3,2-4.2c0.9-0.9,2.1-1.4,3.4-1.4c1.3,0,2.2,0.4,2.6,1.3c0.5,0.8,0.5,2.1,0.2,3.7l-2.9,14.7h12.1
			l3.2-16.2c0.6-3,0.5-5.6-0.2-7.6C212.2,184.5,211,183,209.3,181.9z"/>
		<path class="st1" d="M243.4,182.1c-2.4-1.1-5.2-1.7-8.4-1.7c-3.5,0-6.7,0.7-9.4,2.2c-2.7,1.5-4.9,3.5-6.5,6
			c-1.6,2.5-2.4,5.4-2.4,8.6c0,2.7,0.7,5.1,2,7.1c1.3,2,3.1,3.6,5.5,4.7c2.4,1.1,5.2,1.7,8.4,1.7c3.6,0,6.7-0.7,9.4-2.2
			c2.7-1.5,4.9-3.5,6.4-6c1.6-2.5,2.4-5.4,2.4-8.6c0-2.7-0.7-5.1-2-7.1C247.6,184.8,245.7,183.2,243.4,182.1z M237.9,198.2
			c-0.4,1-1.1,1.8-1.8,2.4c-0.8,0.6-1.7,0.8-2.8,0.8c-1.4,0-2.4-0.4-3.2-1.3c-0.8-0.9-1.1-2-1.1-3.4s0.2-2.6,0.7-3.6
			c0.4-1,1.1-1.8,1.9-2.4c0.8-0.6,1.7-0.8,2.8-0.8c1.4,0,2.5,0.5,3.2,1.4c0.7,0.9,1.1,2,1.1,3.3
			C238.6,195.9,238.4,197.1,237.9,198.2z"/>
		<path class="st1" d="M266.2,189.1c0.5-0.3,1.5-0.5,2.9-0.5c1.2,0,2.6,0.1,4.1,0.4c1.5,0.3,3,0.9,4.6,1.8l4.2-8.2
			c-1.5-0.7-3.3-1.3-5.3-1.6c-2-0.4-4-0.6-6.2-0.6c-3,0-5.8,0.4-8.3,1.2c-2.5,0.8-4.5,2-6,3.6c-1.5,1.6-2.2,3.7-2.2,6.2
			c0,1.6,0.4,3,1.1,4c0.7,1,1.6,1.8,2.8,2.3c1.1,0.6,2.3,1,3.6,1.3c1.2,0.3,2.4,0.5,3.6,0.6c1.1,0.1,2,0.3,2.8,0.5
			c0.7,0.2,1.1,0.5,1.1,0.9c0,0.4-0.3,0.7-0.8,1c-0.5,0.3-1.5,0.4-2.8,0.4c-1.6,0-3.4-0.2-5.2-0.7c-1.8-0.4-3.5-1.1-4.9-2l-4.2,8.2
			c1.3,0.7,3.1,1.4,5.4,1.9c2.3,0.5,4.8,0.8,7.4,0.8c3,0,5.7-0.4,8.2-1.2c2.5-0.8,4.5-2,5.9-3.7c1.5-1.6,2.2-3.7,2.2-6.1
			c0-1.6-0.4-3-1.1-4c-0.7-1-1.6-1.8-2.7-2.3c-1.1-0.6-2.3-1-3.6-1.2c-1.3-0.3-2.5-0.5-3.6-0.6c-1.1-0.2-2-0.3-2.7-0.6
			c-0.7-0.2-1.1-0.5-1.1-1C265.4,189.7,265.7,189.4,266.2,189.1z"/>
		<polygon class="st1" points="305.7,172.8 298.2,210.2 310.8,210.2 318.3,172.8 		"/>
		<polygon class="st1" points="345.5,190.2 334.8,172.8 324.4,172.8 316.9,210.2 329.2,210.2 332.7,192.8 343.5,210.2 353.8,210.2 
			361.3,172.8 349,172.8 		"/>
		<path class="st1" d="M386.7,200.3c-1.2,0.4-2.5,0.6-3.7,0.6c-1.7,0-3.2-0.3-4.4-0.9c-1.2-0.6-2.2-1.5-2.8-2.6
			c-0.7-1.1-1-2.4-1-3.9c0-1.7,0.2-3.2,0.7-4.6c0.5-1.4,1.2-2.6,2.2-3.6c0.9-1,2.1-1.8,3.4-2.4c1.3-0.6,2.8-0.8,4.4-0.8
			c1.8,0,3.4,0.3,4.7,0.9c1.4,0.6,2.6,1.7,3.9,3.2l9-7c-1.7-2.4-4-4.3-6.9-5.5c-2.8-1.2-6.2-1.8-10.1-1.8c-3.6,0-6.8,0.5-9.8,1.6
			s-5.5,2.6-7.6,4.6c-2.1,2-3.8,4.4-4.9,7.1c-1.2,2.7-1.7,5.8-1.7,9c0,3.3,0.8,6.2,2.4,8.7s3.8,4.5,6.7,5.9
			c2.9,1.4,6.3,2.1,10.1,2.1c3,0,5.7-0.4,8.3-1.1c2.6-0.8,4.9-1.9,6.8-3.3l3.2-16.2h-11L386.7,200.3z"/>
		<path class="st1" d="M438.6,193.3c1.6-2.4,2.3-5.1,2.3-8.2c0-3.9-1.4-6.9-4.1-9.1c-2.7-2.2-6.5-3.2-11.5-3.2h-16.8l-7.5,37.4h12.6
			l1.9-9.4h3.1l5.3,9.4h13.1l-6.2-10.9c0.4-0.2,0.8-0.3,1.2-0.5C434.8,197.5,437,195.7,438.6,193.3z M426.9,183.4
			c0.8,0.6,1.3,1.6,1.3,2.9c0,1.6-0.5,2.8-1.4,3.7c-1,0.9-2.3,1.3-4.1,1.3h-5.2l1.7-8.8h4.2C424.9,182.5,426,182.8,426.9,183.4z"/>
		<polygon class="st1" points="456.2,195.8 472,195.8 473.8,186.7 458,186.7 458.9,182.3 476.9,182.3 478.8,172.8 448.4,172.8 
			440.9,210.2 472,210.2 474,200.7 455.2,200.7 		"/>
		<path class="st1" d="M510.7,197.1c0-1.6-0.3-3-1-4.1s-1.5-2-2.6-2.8c-1.1-0.7-2.2-1.3-3.5-1.8c-1.3-0.4-2.5-0.8-3.8-1.1
			c-1.3-0.3-2.4-0.6-3.5-0.9s-1.9-0.6-2.6-1c-0.6-0.4-1-0.8-1-1.4c0-0.4,0.2-0.8,0.6-1.2c0.4-0.4,1-0.7,1.8-0.9
			c0.8-0.2,1.8-0.3,3-0.3c1.8,0,3.6,0.2,5.4,0.7c1.8,0.5,3.4,1.2,4.9,2.1l4.5-9.2c-1.7-1-3.8-1.8-6.2-2.4c-2.4-0.6-5-0.8-7.8-0.8
			c-3.9,0-7.3,0.6-10.1,1.7c-2.8,1.2-5,2.8-6.5,4.9c-1.5,2.1-2.3,4.6-2.3,7.4c0,1.6,0.3,3,1,4.2c0.6,1.1,1.5,2.1,2.5,2.8
			c1.1,0.7,2.2,1.4,3.5,1.8c1.3,0.5,2.6,0.9,3.8,1.2c1.3,0.3,2.4,0.6,3.5,0.9c1.1,0.3,1.9,0.6,2.5,1c0.6,0.4,1,0.8,1,1.4
			c0,0.4-0.2,0.8-0.6,1.2c-0.4,0.3-0.9,0.6-1.7,0.8c-0.7,0.2-1.6,0.3-2.8,0.3c-1.4,0-2.8-0.1-4.2-0.4c-1.4-0.2-2.8-0.6-4.2-1.1
			c-1.4-0.5-2.8-1.2-4.2-2l-4.9,9.3c1.2,0.7,2.6,1.4,4.3,2c1.7,0.6,3.5,1,5.5,1.4c2,0.3,4.2,0.5,6.4,0.5c3.9,0,7.2-0.6,10.1-1.8
			c2.8-1.2,5-2.8,6.6-4.9C509.9,202.3,510.7,199.9,510.7,197.1z"/>
		<path class="st1" d="M540.5,210.2h12.6l-8.9-37.4h-12.4L508,210.2h13.3l3.7-6.5h14.3L540.5,210.2z M530.2,194.6l5.5-9.6l1.8,9.6
			H530.2z"/>
	</g>
</g>
<g id="Cadete">
</g>
<g id="Layer_6">
</g>
<g id="Encabezado">
</g>
<g id="Layer_5">
</g>
<g id="Líneas_guía" class="st2">
</g>
</svg>
