<?xml version="1.0" encoding="utf-8"?>
<!-- Generator: Adobe Illustrator 27.4.0, SVG Export Plug-In . SVG Version: 6.00 Build 0)  -->
<svg version="1.1" id="Capa_1" xmlns="http://www.w3.org/2000/svg" xmlns:xlink="http://www.w3.org/1999/xlink" x="0px" y="0px"
	 viewBox="0 0 500 500" style="enable-background:new 0 0 500 500;" xml:space="preserve">
<style type="text/css">
	.st0{fill:#D60515;}
	.st1{fill:#FFFFFF;}
</style>
<g>
	<circle class="st0" cx="250" cy="250" r="195.1"/>
	<path class="st1" d="M247.1,270.6c-7.1-4.5-14.4-7-22.4-7c-21.7,0-39.2,17.4-39.2,39.1c-0.1,21.2,17.2,38.6,38.7,38.9
		c21.4,0.3,39.3-17.1,39.3-38.6c0.1-46.5,0-93.1,0-139.6c0-7.9,0-15.8,0-24c14.1,0,27.9,0,42.3,0c0,3.5,0,7,0,10.6
		c0,8.8,3.4,13.7,12,15.8c4.8,1.2,9.9,1.2,14.9,1.6c1.4,0.1,2.8,0,4.6,0c0,1.6,0,2.8,0,4c0,11.5-0.2,23,0.1,34.5
		c0.1,3.4-1.1,4.7-4.2,4.7c-8.2,0-16.4,0-24.7,0c-0.8,0-1.5-0.2-2.7-0.3c0,1.5,0,2.8,0,4.1c0,29.5,0,58.9,0,88.4
		c-0.1,39.5-28.3,73.3-67,80.1c-39.2,6.9-77.7-14.9-90.9-52.5c-10.6-30.2-5.3-58.3,16.1-82.1c21.4-23.8,48.7-31.4,80-24.7
		c1.8,0.4,3.3,0.7,3.2,3.3c-0.1,13.9-0.1,27.9-0.1,41.8C247.4,269.1,247.3,269.5,247.1,270.6z"/>
</g>
</svg>
