<?xml version="1.0" encoding="utf-8"?>
<!-- Generator: Adobe Illustrator 27.4.0, SVG Export Plug-In . SVG Version: 6.00 Build 0)  -->
<svg version="1.1" id="Capa_1" xmlns="http://www.w3.org/2000/svg" xmlns:xlink="http://www.w3.org/1999/xlink" x="0px" y="0px"
	 viewBox="0 0 500 500" style="enable-background:new 0 0 500 500;" xml:space="preserve">
<style type="text/css">
	.st0{fill:#FFFFFF;}
</style>
<path class="st0" d="M260.14,263.05c-10.41-6.65-21.11-10.33-32.94-10.33c-31.93,0-57.6,25.59-57.69,57.56
	c-0.09,31.23,25.37,56.81,57,57.28c31.42,0.47,57.8-25.11,57.89-56.81c0.2-68.45,0.07-136.9,0.08-205.36c0-11.64,0-23.29,0-35.35
	c20.71,0,41.11,0,62.28,0c0,5.18-0.01,10.36,0,15.54c0.04,12.89,5.06,20.16,17.57,23.18c7.09,1.71,14.6,1.73,21.93,2.41
	c2.07,0.19,4.17,0.03,6.83,0.03c0,2.31,0,4.07,0,5.82c0,16.91-0.25,33.82,0.15,50.72c0.12,5.04-1.68,6.92-6.19,6.93
	c-12.09,0.04-24.19-0.01-36.28-0.06c-1.12,0-2.24-0.25-4.02-0.47c0,2.18,0,4.1,0,6.02c0,43.34,0.05,86.67-0.01,130.01
	c-0.09,58.18-41.64,107.8-98.58,117.89c-57.61,10.2-114.35-21.96-133.66-77.21c-15.51-44.4-7.82-85.7,23.7-120.71
	c31.54-35.01,71.67-46.14,117.66-36.32c2.6,0.56,4.82,1.01,4.78,4.83c-0.21,20.52-0.11,41.04-0.12,61.56
	C260.52,260.84,260.36,261.47,260.14,263.05z"/>
</svg>
