<?xml version="1.0" encoding="utf-8"?>
<!-- Generator: Adobe Illustrator 27.4.0, SVG Export Plug-In . SVG Version: 6.00 Build 0)  -->
<svg version="1.1" id="Capa_1" xmlns="http://www.w3.org/2000/svg" xmlns:xlink="http://www.w3.org/1999/xlink" x="0px" y="0px"
	 viewBox="0 0 500 500" style="enable-background:new 0 0 500 500;" xml:space="preserve">
<style type="text/css">
	.st0{fill:#FFFFFF;}
</style>
<path class="st0" d="M249.99,55.61c-82.61,0-149.81,67.22-149.81,149.83c0,59.04,24.72,118.75,71.47,172.69
	c34.93,40.29,69.54,63.11,70.99,64.06c2.23,1.47,4.79,2.19,7.35,2.19c2.56,0,5.12-0.73,7.35-2.19c1.46-0.95,36.08-23.77,71-64.06
	c46.76-53.94,71.48-113.65,71.48-172.69C399.82,122.83,332.61,55.61,249.99,55.61z M250.01,264.87c-32.79,0-59.47-26.67-59.47-59.46
	c0-32.79,26.67-59.47,59.47-59.47c32.78,0,59.46,26.68,59.46,59.47C309.46,238.2,282.79,264.87,250.01,264.87z"/>
</svg>
