<?xml version="1.0" encoding="utf-8"?>
<!-- Generator: Adobe Illustrator 27.4.0, SVG Export Plug-In . SVG Version: 6.00 Build 0)  -->
<svg version="1.1" id="Capa_1" xmlns="http://www.w3.org/2000/svg" xmlns:xlink="http://www.w3.org/1999/xlink" x="0px" y="0px"
	 viewBox="0 0 500 500" style="enable-background:new 0 0 500 500;" xml:space="preserve">
<style type="text/css">
	.st0{fill:#FFFFFF;}
</style>
<g>
	<g>
		<path class="st0" d="M360.04,304.26c0,6.26-2.47,21.44-7.68,26.57c-5.12,5.22-20.21,21.06-42.88,21.06
			c-22.58,0-76.46-18.4-105.21-47.15c-28.75-28.75-54.27-57.87-60.24-84.34c-6.07-26.57-5.22-38.52,2.18-49.43
			c0,0,12.05-21.16,21.91-22.29c9.77-1.23,22.48-1.23,25.9,5.22c3.41,6.45,18.69,43.83,18.69,43.83s2.56,6.36-1.42,12.62
			c-3.98,6.26-13.09,15.27-13.09,15.27s-5.03,6.45,0,13.28c5.03,6.83,12.81,19.35,28.93,35.48s47.05,27.61,47.05,27.61
			s4.36,0.57,7.21-2.28c2.85-2.75,18.12-21.91,18.12-21.91s4.84-6.26,13-2.56c8.16,3.7,43.45,21.25,43.45,21.25
			S360.04,298.01,360.04,304.26z"/>
		<path class="st0" d="M369.25,82.56C335.57,58.47,294.4,44.33,250,44.33c-44.4,0-85.57,14.14-119.25,38.23
			C78.48,119.84,44.33,180.94,44.33,250c0,43.82,13.66,85.38,39.46,120.76l-9.11,46.67l-1.04,5.31l-6.36,32.92l31.88-11l48.29-16.6
			c31.31,18.02,66.6,27.6,102.55,27.6c44.4,0,85.57-14.13,119.15-38.23c52.37-37.19,86.52-98.47,86.52-167.44
			C455.67,180.94,421.52,119.84,369.25,82.56z M301.04,417.44c-16.13,4.93-33.3,7.59-51.04,7.59c-17.26,0-34.25-2.56-50.56-7.59
			c-14.8-4.46-28.93-10.91-42.12-19.16l-6.17-3.89l-43.73,15.09l9.01-46.39l-4.27-5.5C87.78,326.47,74.97,289.27,74.97,250
			c0-78.74,52.18-145.43,123.71-167.44c16.22-5.03,33.49-7.69,51.32-7.69c17.84,0,35.1,2.66,51.32,7.69
			c71.62,22.01,123.8,88.7,123.8,167.44C425.12,328.74,372.85,395.53,301.04,417.44z"/>
	</g>
	<path class="st0" d="M360.04,304.26c0,6.26-2.47,21.44-7.68,26.57c-5.12,5.22-20.21,21.06-42.88,21.06
		c-22.58,0-76.46-18.4-105.21-47.15c-28.75-28.75-54.27-57.87-60.24-84.34c-6.07-26.57-5.22-38.52,2.18-49.43
		c0,0,12.05-21.16,21.91-22.29c9.77-1.23,22.48-1.23,25.9,5.22c3.41,6.45,18.69,43.83,18.69,43.83s2.56,6.36-1.42,12.62
		c-3.98,6.26-13.09,15.27-13.09,15.27s-5.03,6.45,0,13.28c5.03,6.83,12.81,19.35,28.93,35.48s47.05,27.61,47.05,27.61
		s4.36,0.57,7.21-2.28c2.85-2.75,18.12-21.91,18.12-21.91s4.84-6.26,13-2.56c8.16,3.7,43.45,21.25,43.45,21.25
		S360.04,298.01,360.04,304.26z"/>
</g>
</svg>
