<?xml version="1.0" encoding="utf-8"?>
<!-- Generator: Adobe Illustrator 27.4.0, SVG Export Plug-In . SVG Version: 6.00 Build 0)  -->
<svg version="1.1" id="Capa_1" xmlns="http://www.w3.org/2000/svg" xmlns:xlink="http://www.w3.org/1999/xlink" x="0px" y="0px"
	 viewBox="0 0 500 500" style="enable-background:new 0 0 500 500;" xml:space="preserve">
<style type="text/css">
	.st0{fill:#FFFFFF;}
</style>
<g>
	<g>
		<g>
			<path class="st0" d="M263.93,436.69c-4.8,0-8.72-3.85-8.8-8.66c-0.08-4.85,3.8-8.86,8.66-8.93
				c40.91-0.65,79.64-16.67,109.05-45.11c3.51-3.37,9.06-3.27,12.44,0.21c3.38,3.49,3.28,9.06-0.21,12.44
				c-32.65,31.55-75.62,49.32-121.01,50.05C264.03,436.69,263.98,436.69,263.93,436.69z"/>
		</g>
		<g>
			<path class="st0" d="M258.4,97.72c-4.8,0-8.72-3.85-8.8-8.66c-0.07-4.86,3.81-8.85,8.67-8.93l0.8-0.04
				c0.69-0.05,1.39-0.09,2.1-0.09c4.86,0,8.8,3.94,8.8,8.8c0,4.86-3.94,8.8-8.8,8.8l-0.85,0.05c-0.6,0.04-1.19,0.08-1.79,0.09
				C258.49,97.72,258.44,97.72,258.4,97.72z"/>
		</g>
		<g>
			<path class="st0" d="M91.54,267.21c-4.86,0-8.8-3.94-8.8-8.8c0-51.23,22.2-100.08,60.91-134.04c3.66-3.21,9.21-2.84,12.41,0.81
				c3.2,3.65,2.84,9.21-0.81,12.41c-34.9,30.62-54.92,74.65-54.92,120.82C100.34,263.27,96.4,267.21,91.54,267.21z"/>
		</g>
		<g>
			<path class="st0" d="M258.4,436.69c-0.05,0-0.09,0-0.14,0c-45.39-0.73-88.36-18.51-121-50.05c-3.49-3.38-3.59-8.95-0.21-12.44
				c3.37-3.49,8.94-3.58,12.44-0.21c29.41,28.44,68.14,44.46,109.05,45.11c4.86,0.08,8.73,4.08,8.66,8.93
				C267.12,432.84,263.2,436.69,258.4,436.69z"/>
		</g>
		<g>
			<path class="st0" d="M143.38,389.1c-2.2,0-4.4-0.82-6.12-2.47c-35.16-33.97-54.51-79.51-54.51-128.22c0-4.86,3.94-8.8,8.8-8.8
				c4.86,0,8.8,3.94,8.8,8.8c0,43.9,17.45,84.94,49.15,115.57c3.49,3.38,3.59,8.94,0.21,12.44
				C147.97,388.21,145.68,389.1,143.38,389.1z"/>
		</g>
		<g>
			<path class="st0" d="M261.17,436.83c-0.73,0-1.44-0.05-2.16-0.1l-0.8-0.05c-4.86-0.11-8.71-4.14-8.6-8.99
				c0.11-4.79,4.03-8.6,8.79-8.6c0.07,0,0.14,0,0.2,0c0.58,0.01,1.14,0.06,1.7,0.1l0.87,0.05c4.86,0,8.8,3.94,8.8,8.8
				C269.96,432.89,266.03,436.83,261.17,436.83z"/>
		</g>
		<g>
			<path class="st0" d="M261.17,436.83c-4.86,0-8.8-3.94-8.8-8.8c0-4.86,3.94-8.8,8.8-8.8l0.87-0.05c0.56-0.04,1.13-0.08,1.7-0.1
				c4.58,0.01,8.88,3.74,8.99,8.6c0.1,4.85-3.75,8.88-8.6,8.99l-0.8,0.05C262.61,436.78,261.9,436.83,261.17,436.83z"/>
		</g>
		<g>
			<path class="st0" d="M372.87,139.78c-2.05,0-4.12-0.72-5.79-2.19c-28.61-25.1-65.29-39.26-103.29-39.88
				c-4.85-0.08-8.73-4.08-8.65-8.94c0.08-4.86,3.96-8.58,8.94-8.65c42.16,0.68,82.86,16.4,114.6,44.25
				c3.66,3.2,4.01,8.76,0.81,12.41C377.75,138.77,375.31,139.78,372.87,139.78z"/>
		</g>
		<g>
			<path class="st0" d="M149.46,139.78c-2.45,0-4.88-1.01-6.62-3c-3.2-3.65-2.84-9.21,0.81-12.41
				c31.74-27.85,72.44-43.57,114.6-44.25c5.08-0.19,8.86,3.79,8.94,8.65c0.08,4.85-3.8,8.86-8.65,8.94
				c-37.99,0.61-74.67,14.77-103.29,39.88C153.59,139.06,151.52,139.78,149.46,139.78z"/>
		</g>
		<g>
			<path class="st0" d="M263.93,97.72c-0.04,0-0.08,0-0.13,0c-0.6-0.01-1.2-0.05-1.79-0.09l-0.84-0.05c-4.86,0-8.8-3.94-8.8-8.8
				c0-4.86,3.94-8.8,8.8-8.8c0.71,0,1.4,0.04,2.1,0.09l0.8,0.04c4.86,0.07,8.73,4.07,8.67,8.93
				C272.65,93.87,268.73,97.72,263.93,97.72z"/>
		</g>
		<g>
			<path class="st0" d="M378.96,389.1c-2.3,0-4.6-0.9-6.32-2.68c-3.38-3.49-3.28-9.06,0.21-12.44
				c31.69-30.62,49.15-71.67,49.15-115.57c0-46.16-20.02-90.2-54.92-120.82c-3.66-3.2-4.01-8.76-0.81-12.41
				c3.2-3.65,8.75-4.02,12.41-0.81c38.71,33.96,60.91,82.81,60.91,134.04c0,48.71-19.36,94.25-54.51,128.22
				C383.37,388.28,381.16,389.1,378.96,389.1z"/>
		</g>
		<g>
			<path class="st0" d="M199.93,167.93c-1.44,0-2.91-0.35-4.26-1.11c-4.25-2.36-5.78-7.71-3.42-11.96
				c15.47-27.89,37.55-52.46,63.84-71.05c3.94-2.81,9.46-1.87,12.26,2.1c2.8,3.96,1.86,9.46-2.1,12.26
				c-24.15,17.08-44.42,39.63-58.62,65.23C206.02,166.3,203.02,167.93,199.93,167.93z"/>
		</g>
		<g>
			<path class="st0" d="M261.18,99.79c-2.76,0-5.48-1.3-7.19-3.72c-2.8-3.97-1.86-9.46,2.12-12.26l0.98-0.74
				c0.61-0.48,1.23-0.95,1.87-1.39c4.01-2.76,9.48-1.75,12.23,2.26c2.76,4,1.75,9.48-2.25,12.23c-0.36,0.25-0.71,0.53-1.07,0.8
				c-0.54,0.42-1.07,0.82-1.61,1.21C264.7,99.27,262.93,99.79,261.18,99.79z"/>
		</g>
		<g>
			<path class="st0" d="M195.43,357.51c-3.24,0-6.37-1.8-7.9-4.91c-14.65-29.75-22.08-61.44-22.08-94.19c0-4.86,3.94-8.8,8.8-8.8
				c4.86,0,8.8,3.94,8.8,8.8c0,30.03,6.82,59.1,20.26,86.41c2.15,4.36,0.36,9.63-4.01,11.78
				C198.06,357.22,196.73,357.51,195.43,357.51z"/>
		</g>
		<g>
			<path class="st0" d="M263.92,436.69c-1.7,0-3.41-0.49-4.92-1.51c-0.68-0.46-1.33-0.96-1.98-1.46l-0.93-0.7
				c-3.97-2.8-4.91-8.29-2.12-12.26c2.81-3.96,8.29-4.91,12.26-2.12c0.54,0.38,1.05,0.78,1.57,1.18c0.34,0.27,0.69,0.54,1.05,0.79
				c4.03,2.72,5.08,8.18,2.36,12.21C269.52,435.33,266.75,436.69,263.92,436.69z"/>
		</g>
		<g>
			<path class="st0" d="M261.16,434.63c-1.76,0-3.53-0.52-5.07-1.61c-29.09-20.57-52.8-48.38-68.57-80.42
				c-2.14-4.36-0.34-9.63,4.01-11.77c4.36-2.15,9.63-0.35,11.78,4.01c14.46,29.41,36.23,54.94,62.93,73.82
				c3.96,2.8,4.91,8.29,2.1,12.26C266.64,433.33,263.92,434.63,261.16,434.63z"/>
		</g>
		<g>
			<path class="st0" d="M174.25,267.21c-4.86,0-8.8-3.94-8.8-8.8c0-36.14,9.26-71.95,26.79-103.55c2.34-4.25,7.71-5.78,11.96-3.43
				c4.25,2.36,5.78,7.71,3.42,11.96c-16.08,28.99-24.58,61.85-24.58,95.01C183.04,263.27,179.11,267.21,174.25,267.21z"/>
		</g>
		<g>
			<path class="st0" d="M199.94,167.93c-1,0-2.01-0.17-3-0.53c-19.3-7-37.11-16.94-52.95-29.53c-3.8-3.02-4.43-8.56-1.41-12.36
				c3.03-3.8,8.56-4.43,12.36-1.41c14.35,11.41,30.5,20.41,48,26.76c4.56,1.66,6.92,6.7,5.26,11.27
				C206.9,165.71,203.53,167.93,199.94,167.93z"/>
		</g>
		<g>
			<path class="st0" d="M322.39,167.93c-3.59,0-6.97-2.22-8.27-5.8c-1.66-4.57,0.7-9.61,5.26-11.27c17.51-6.35,33.66-15.35,48-26.76
				c3.81-3.02,9.34-2.39,12.36,1.41c3.02,3.8,2.39,9.34-1.41,12.36c-15.85,12.59-33.66,22.53-52.95,29.53
				C324.4,167.76,323.39,167.93,322.39,167.93z"/>
		</g>
		<g>
			<path class="st0" d="M261.17,178.85c-4.86,0-8.8-3.94-8.8-8.8c0-4.86,3.94-8.8,8.8-8.8c19.61,0,39.2-3.5,58.23-10.4
				c4.56-1.65,9.61,0.7,11.26,5.27c1.66,4.57-0.7,9.61-5.27,11.27C304.44,175,282.83,178.85,261.17,178.85z"/>
		</g>
		<g>
			<path class="st0" d="M261.17,178.85c-21.67,0-43.28-3.85-64.23-11.45c-4.57-1.66-6.93-6.7-5.27-11.27
				c1.65-4.57,6.71-6.92,11.26-5.27c19.03,6.9,38.63,10.4,58.24,10.4c4.86,0,8.8,3.94,8.8,8.8
				C269.96,174.92,266.03,178.85,261.17,178.85z"/>
		</g>
		<g>
			<path class="st0" d="M378.95,389.1c-2.04,0-4.1-0.71-5.77-2.16c-14.73-12.81-31.38-22.92-49.5-30.05
				c-4.52-1.78-6.74-6.89-4.96-11.41c1.77-4.52,6.88-6.73,11.41-4.96c19.98,7.87,38.36,19.02,54.6,33.14
				c3.66,3.19,4.05,8.74,0.87,12.41C383.86,388.08,381.41,389.1,378.95,389.1z"/>
		</g>
		<g>
			<path class="st0" d="M326.91,357.51c-1.07,0-2.16-0.2-3.22-0.62c-20.17-7.94-41.21-11.96-62.52-11.96c-4.86,0-8.8-3.94-8.8-8.8
				c0-4.86,3.94-8.8,8.8-8.8c23.52,0,46.73,4.44,68.96,13.19c4.51,1.78,6.74,6.89,4.96,11.4
				C333.73,355.4,330.41,357.51,326.91,357.51z"/>
		</g>
		<g>
			<path class="st0" d="M195.42,357.51c-3.5,0-6.82-2.12-8.18-5.58c-1.78-4.52,0.45-9.63,4.96-11.4
				c22.24-8.75,45.44-13.19,68.97-13.19c4.86,0,8.8,3.94,8.8,8.8c0,4.86-3.94,8.8-8.8,8.8c-21.32,0-42.35,4.03-62.52,11.96
				C197.59,357.31,196.49,357.51,195.42,357.51z"/>
		</g>
		<g>
			<path class="st0" d="M143.38,389.1c-2.46,0-4.91-1.02-6.64-3.02c-3.19-3.67-2.8-9.22,0.87-12.41
				c16.23-14.11,34.6-25.27,54.59-33.14c4.51-1.77,9.63,0.44,11.41,4.96c1.78,4.52-0.44,9.63-4.96,11.41
				c-18.13,7.14-34.78,17.25-49.5,30.05C147.48,388.39,145.42,389.1,143.38,389.1z"/>
		</g>
		<g>
			<path class="st0" d="M348.08,267.21c-4.86,0-8.8-3.94-8.8-8.8c0-33.17-8.5-66.02-24.58-95.01c-2.36-4.25-0.82-9.6,3.42-11.96
				c4.25-2.35,9.61-0.82,11.96,3.43c17.53,31.6,26.79,67.41,26.79,103.55C356.88,263.27,352.94,267.21,348.08,267.21z"/>
		</g>
		<g>
			<path class="st0" d="M261.16,99.79c-1.73,0-3.48-0.51-5.02-1.57c-0.59-0.41-1.15-0.85-1.72-1.29c-0.33-0.26-0.66-0.52-1.01-0.76
				c-4-2.76-5.01-8.23-2.25-12.23c2.75-4,8.22-5.02,12.23-2.26c0.62,0.43,1.22,0.89,1.81,1.35l0.99,0.74
				c3.99,2.78,4.97,8.26,2.2,12.25C266.68,98.47,263.94,99.79,261.16,99.79z"/>
		</g>
		<g>
			<path class="st0" d="M258.41,436.69c-2.82,0-5.59-1.35-7.29-3.87c-2.72-4.03-1.67-9.49,2.36-12.21c0.34-0.23,0.67-0.49,1-0.75
				c0.55-0.43,1.1-0.85,1.67-1.25c4-2.77,9.47-1.79,12.25,2.2c2.77,3.99,1.79,9.47-2.2,12.25l-0.94,0.71
				c-0.63,0.49-1.26,0.97-1.92,1.42C261.81,436.2,260.1,436.69,258.41,436.69z"/>
		</g>
		<g>
			<path class="st0" d="M326.9,357.51c-1.31,0-2.63-0.29-3.88-0.91c-4.36-2.15-6.16-7.42-4.01-11.78
				c13.45-27.31,20.26-56.39,20.26-86.41c0-4.86,3.94-8.8,8.8-8.8c4.86,0,8.8,3.94,8.8,8.8c0,32.74-7.43,64.43-22.08,94.19
				C333.27,355.71,330.15,357.51,326.9,357.51z"/>
		</g>
		<g>
			<path class="st0" d="M261.18,434.63c-2.76,0-5.48-1.29-7.19-3.72c-2.8-3.96-1.86-9.46,2.1-12.26
				c26.7-18.89,48.46-44.41,62.92-73.82c2.15-4.36,7.42-6.16,11.78-4.01c4.36,2.14,6.16,7.42,4.01,11.77
				c-15.76,32.03-39.47,59.84-68.56,80.42C264.71,434.1,262.93,434.63,261.18,434.63z"/>
		</g>
		<g>
			<path class="st0" d="M322.4,167.93c-3.09,0-6.1-1.63-7.7-4.53c-14.19-25.59-34.46-48.14-58.61-65.23
				c-3.97-2.8-4.91-8.29-2.1-12.26c2.8-3.98,8.31-4.91,12.26-2.1c26.3,18.6,48.38,43.17,63.84,71.05c2.36,4.25,0.82,9.6-3.42,11.96
				C325.31,167.57,323.84,167.93,322.4,167.93z"/>
		</g>
		<g>
			<path class="st0" d="M174.25,267.21H91.54c-4.86,0-8.8-3.94-8.8-8.8c0-4.86,3.94-8.8,8.8-8.8h82.71c4.86,0,8.8,3.94,8.8,8.8
				C183.04,263.27,179.11,267.21,174.25,267.21z"/>
		</g>
		<g>
			<path class="st0" d="M348.08,267.21h-86.91c-4.86,0-8.8-3.94-8.8-8.8c0-4.86,3.94-8.8,8.8-8.8h86.91c4.86,0,8.8,3.94,8.8,8.8
				C356.88,263.27,352.94,267.21,348.08,267.21z"/>
		</g>
		<g>
			<path class="st0" d="M261.17,267.21h-86.92c-4.86,0-8.8-3.94-8.8-8.8c0-4.86,3.94-8.8,8.8-8.8h86.92c4.86,0,8.8,3.94,8.8,8.8
				C269.96,263.27,266.03,267.21,261.17,267.21z"/>
		</g>
		<g>
			<path class="st0" d="M425.78,267.21h-77.7c-4.86,0-8.8-3.94-8.8-8.8c0-4.86,3.94-8.8,8.8-8.8h77.7c4.86,0,8.8,3.94,8.8,8.8
				C434.57,263.27,430.64,267.21,425.78,267.21z"/>
		</g>
		<g>
			<path class="st0" d="M261.17,178.85c-4.86,0-8.8-3.94-8.8-8.8V90.99c0-4.86,3.94-8.8,8.8-8.8c4.86,0,8.8,3.94,8.8,8.8v79.06
				C269.96,174.92,266.03,178.85,261.17,178.85z"/>
		</g>
		<g>
			<path class="st0" d="M261.17,267.21c-4.86,0-8.8-3.94-8.8-8.8v-88.36c0-4.86,3.94-8.8,8.8-8.8c4.86,0,8.8,3.94,8.8,8.8v88.36
				C269.96,263.27,266.03,267.21,261.17,267.21z"/>
		</g>
		<g>
			<path class="st0" d="M261.17,434.63c-4.86,0-8.8-3.94-8.8-8.8v-89.69c0-4.86,3.94-8.8,8.8-8.8c4.86,0,8.8,3.94,8.8,8.8v89.69
				C269.96,430.69,266.03,434.63,261.17,434.63z"/>
		</g>
		<g>
			<path class="st0" d="M261.17,99.79c-4.86,0-8.8-3.94-8.8-8.8v-2.21c0-4.86,3.94-8.8,8.8-8.8c4.86,0,8.8,3.94,8.8,8.8v2.21
				C269.96,95.85,266.03,99.79,261.17,99.79z"/>
		</g>
		<g>
			<path class="st0" d="M261.17,344.93c-4.86,0-8.8-3.94-8.8-8.8v-77.72c0-4.86,3.94-8.8,8.8-8.8c4.86,0,8.8,3.94,8.8,8.8v77.72
				C269.96,341,266.03,344.93,261.17,344.93z"/>
		</g>
		<g>
			<path class="st0" d="M261.17,436.83c-4.86,0-8.8-3.94-8.8-8.8v-2.21c0-4.86,3.94-8.8,8.8-8.8c4.86,0,8.8,3.94,8.8,8.8v2.21
				C269.96,432.89,266.03,436.83,261.17,436.83z"/>
		</g>
	</g>
</g>
</svg>
