<?xml version="1.0" encoding="utf-8"?>
<!-- Generator: Adobe Illustrator 27.4.0, SVG Export Plug-In . SVG Version: 6.00 Build 0)  -->
<svg version="1.1" id="Capa_1" xmlns="http://www.w3.org/2000/svg" xmlns:xlink="http://www.w3.org/1999/xlink" x="0px" y="0px"
	 viewBox="0 0 500 500" style="enable-background:new 0 0 500 500;" xml:space="preserve">
<style type="text/css">
	.st0{fill:#D60515;}
	.st1{fill:#FFFFFF;}
</style>
<g>
	<circle class="st0" cx="250" cy="250" r="195.1"/>
	<path class="st1" d="M374.6,187.4c-3-11.2-11.8-20-23-23c-20.3-5.4-101.6-5.4-101.6-5.4s-81.3,0-101.6,5.4c-11.2,3-20,11.8-23,23
		c-5.4,20.3-5.4,62.6-5.4,62.6s0,42.3,5.4,62.6c3,11.2,11.8,20,23,23C168.7,341,250,341,250,341s81.3,0,101.6-5.4
		c11.2-3,20-11.8,23-23c5.4-20.3,5.4-62.6,5.4-62.6S380.1,207.7,374.6,187.4z M224,289v-78l67.6,39L224,289z"/>
</g>
</svg>
