<?xml version="1.0" encoding="utf-8"?>
<!-- Generator: Adobe Illustrator 27.4.0, SVG Export Plug-In . SVG Version: 6.00 Build 0)  -->
<svg version="1.1" id="Capa_1" xmlns="http://www.w3.org/2000/svg" xmlns:xlink="http://www.w3.org/1999/xlink" x="0px" y="0px"
	 viewBox="0 0 500 500" style="enable-background:new 0 0 500 500;" xml:space="preserve">
<style type="text/css">
	.st0{fill-rule:evenodd;clip-rule:evenodd;fill:#FFFFFF;}
</style>
<path class="st0" d="M65.66,402.45c-17.53-5.75-29.32-17.24-35.65-34.61c-15.43-42.43-19.99-219.92,9.71-254.89
	C49.88,101,62.95,94.01,78.51,92.34c80.05-8.62,327.47-7.38,355.99,2.89c16.7,6,28.55,16.94,35.01,33.67
	c16.88,43.86,17.47,203.44-2.24,245.69c-5.34,11.46-14.04,19.55-25.1,25.34C412.32,415.59,104.94,415.4,65.66,402.45z
	 M192.82,319.26c48.13-24.97,95.85-49.71,144.18-74.76c-48.4-25.25-96.1-50.14-144.18-75.23
	C192.82,219.41,192.82,269.01,192.82,319.26z"/>
</svg>
