<?xml version="1.0" encoding="utf-8"?>
<!-- Generator: Adobe Illustrator 27.4.0, SVG Export Plug-In . SVG Version: 6.00 Build 0)  -->
<svg version="1.1" id="Capa_1" xmlns="http://www.w3.org/2000/svg" xmlns:xlink="http://www.w3.org/1999/xlink" x="0px" y="0px"
	 viewBox="0 0 500 500" style="enable-background:new 0 0 500 500;" xml:space="preserve">
<style type="text/css">
	.st0{enable-background:new    ;}
	.st1{fill:#FFFFFF;}
	.st2{fill:#941B20;}
</style>
<g>
	<g id="Pre_Militar_00000173141409945650039220000009501939485906241668_">
		<g class="st0">
			<path class="st1" d="M138.3,487.3v-23.5h7.4c2.2,0,4,0.6,5.4,1.8c1.3,1.2,2,2.8,2,4.9c0,1.4-0.3,2.6-1,3.6
				c-0.7,1.1-1.6,1.8-2.8,2.3s-2.9,0.7-5.1,0.7h-2.5v10.2H138.3z M145.2,466.8h-3.5v7.3h3.7c1.4,0,2.4-0.3,3.2-1
				c0.7-0.6,1.1-1.6,1.1-2.8C149.7,468,148.2,466.8,145.2,466.8z"/>
			<path class="st1" d="M156.2,487.3v-23.4h5.9c2.4,0,4.3,0.6,5.6,1.8s2.1,2.8,2.1,4.8c0,1.4-0.3,2.5-1,3.5s-1.7,1.7-2.9,2.2
				c0.7,0.5,1.5,1.2,2.2,2c0.7,0.9,1.7,2.3,3,4.4c0.8,1.3,1.5,2.3,2,3l1.2,1.7h-4l-1-1.5c0-0.1-0.1-0.2-0.2-0.3l-0.7-0.9l-1-1.7
				l-1.1-1.8c-0.7-1-1.3-1.7-1.9-2.3c-0.6-0.6-1.1-1-1.6-1.2c-0.5-0.3-1.2-0.4-2.3-0.4h-0.9v10.2H156.2z M160.5,466.7h-1v7.4h1.3
				c1.7,0,2.9-0.1,3.5-0.4c0.6-0.3,1.1-0.7,1.5-1.3c0.4-0.6,0.5-1.3,0.5-2c0-0.7-0.2-1.4-0.6-2c-0.4-0.6-0.9-1-1.7-1.3
				C163.3,466.9,162.2,466.7,160.5,466.7z"/>
			<path class="st1" d="M176.8,463.9h13.3v3h-9.9v7.2h9.6v3h-9.6v7.3h10.3v3h-13.6V463.9z"/>
			<path class="st1" d="M222.2,463.9h3.1v23.4H222v-18.2l-7.2,9.1h-0.6l-7.3-9.1v18.2h-3.4v-23.4h3.2l7.8,9.6L222.2,463.9z"/>
			<path class="st1" d="M230.4,463.9h3.4v23.4h-3.4V463.9z"/>
			<path class="st1" d="M239,463.9h3.4v20.4h10.6v3.1H239V463.9z"/>
			<path class="st1" d="M255.9,463.9h3.4v23.4h-3.4V463.9z"/>
		</g>
		<g class="st0">
			<path class="st1" d="M262.4,463.9H282v3h-8.2v20.5h-3.4v-20.5h-8V463.9z"/>
		</g>
		<g class="st0">
			<path class="st1" d="M289.2,463.8h2.4l10.5,23.6h-3.4l-3.1-6.9h-10l-2.9,6.9h-3.4L289.2,463.8z M294.1,477.4l-3.8-8.5l-3.5,8.5
				H294.1z"/>
			<path class="st1" d="M304.8,487.3v-23.4h5.9c2.4,0,4.3,0.6,5.6,1.8c1.4,1.2,2.1,2.8,2.1,4.8c0,1.4-0.3,2.5-1,3.5
				s-1.7,1.7-2.9,2.2c0.8,0.5,1.5,1.2,2.2,2c0.7,0.9,1.7,2.3,3,4.4c0.8,1.3,1.5,2.3,2,3l1.2,1.7h-4l-1-1.5c0-0.1-0.1-0.2-0.2-0.3
				l-0.7-0.9l-1-1.7l-1.1-1.8c-0.7-1-1.3-1.7-1.9-2.3c-0.6-0.6-1.1-1-1.6-1.2c-0.5-0.3-1.2-0.4-2.3-0.4h-0.9v10.2H304.8z
				 M309.1,466.7h-1v7.4h1.3c1.7,0,2.9-0.1,3.5-0.4c0.6-0.3,1.1-0.7,1.5-1.3c0.4-0.6,0.5-1.3,0.5-2c0-0.7-0.2-1.4-0.6-2
				c-0.4-0.6-0.9-1-1.7-1.3C311.9,466.9,310.8,466.7,309.1,466.7z"/>
		</g>
		<g class="st0">
			<path class="st1" d="M95.6,396.7h29.7v37.5c-10.9,4.7-21.7,7.1-32.5,7.1c-14.7,0-26.4-4.3-35.2-12.8
				c-8.8-8.6-13.2-19.1-13.2-31.7c0-13.2,4.5-24.2,13.6-33c9.1-8.8,20.5-13.2,34.2-13.2c5,0,9.7,0.5,14.2,1.6
				c4.5,1.1,10.1,3.1,17,5.9v12.9c-10.6-6.1-21.1-9.2-31.5-9.2c-9.7,0-17.8,3.3-24.5,9.9c-6.6,6.6-10,14.7-10,24.3
				c0,10.1,3.3,18.3,10,24.7c6.6,6.4,15.2,9.6,25.6,9.6c5.1,0,11.1-1.2,18.2-3.5l1.2-0.4V408H95.6V396.7z"/>
			<path class="st1" d="M205.5,351.7h12.7V402c0,6.8-0.5,11.9-1.5,15.4c-1,3.5-2.2,6.4-3.7,8.7c-1.5,2.3-3.2,4.4-5.4,6.2
				c-7,6-16.2,9.1-27.5,9.1c-11.5,0-20.8-3-27.8-9c-2.1-1.9-3.9-3.9-5.4-6.2c-1.5-2.3-2.7-5.1-3.6-8.5c-1-3.3-1.4-8.6-1.4-15.7
				v-50.2h12.7V402c0,8.3,1,14.1,2.9,17.4c1.9,3.3,4.8,5.9,8.7,7.8c3.9,2,8.5,2.9,13.8,2.9c7.5,0,13.7-2,18.4-5.9
				c2.5-2.1,4.3-4.6,5.4-7.5c1.1-2.9,1.6-7.8,1.6-14.8V351.7z"/>
			<path class="st1" d="M235.9,351.7h12.7v88.6h-12.7V351.7z"/>
			<path class="st1" d="M268.4,440.2v-88.5h29.9c12,0,21.6,1.8,28.6,5.4c7,3.6,12.6,8.9,16.7,15.9c4.1,7,6.2,14.7,6.2,23
				c0,5.9-1.1,11.6-3.4,17s-5.5,10.2-9.8,14.3c-4.3,4.2-9.3,7.4-15,9.6c-3.3,1.3-6.4,2.2-9.2,2.6c-2.8,0.4-8.1,0.7-16,0.7H268.4z
				 M296.9,363h-15.9v65.9h16.2c6.3,0,11.3-0.4,14.8-1.3c3.5-0.9,6.4-2,8.8-3.3c2.3-1.3,4.5-3,6.4-4.9c6.3-6.3,9.4-14.4,9.4-24
				c0-9.5-3.2-17.3-9.6-23.3c-2.4-2.2-5.1-4.1-8.1-5.5s-6-2.4-8.7-2.9C307.4,363.3,303,363,296.9,363z"/>
			<path class="st1" d="M365.7,351.7h50.2V363h-37.5v27h36.3v11.4h-36.3v27.5h38.7v11.3h-51.4V351.7z"/>
		</g>
		<g id="Isotipo_00000094619692327337708300000013997306179145133201_">
			<g>
				<polygon class="st1" points="415.5,186.3 415.5,233.3 229.7,324.7 43.7,237.6 43.7,191.9 229.6,281.3 				"/>
			</g>
			<g>
				<polygon class="st1" points="12.1,161.5 36.2,169.4 28.6,303 20,303 				"/>
			</g>
			<g>
				<polygon class="st1" points="18.7,303 29.7,303 38.4,333.7 6.1,333.7 				"/>
			</g>
			<g>
				<polygon class="st2" points="268.3,251.4 500,139.9 260,31.9 465.7,141.6 				"/>
			</g>
			<g>
				<polygon class="st1" points="423.6,141.6 451.5,141.6 229.6,263.2 5,139.9 222.6,33.8 39.7,141.6 228.3,238 				"/>
			</g>
		</g>
	</g>
</g>
</svg>
