<?xml version="1.0" encoding="utf-8"?>
<!-- Generator: Adobe Illustrator 27.4.0, SVG Export Plug-In . SVG Version: 6.00 Build 0)  -->
<svg version="1.1" id="Capa_1" xmlns="http://www.w3.org/2000/svg" xmlns:xlink="http://www.w3.org/1999/xlink" x="0px" y="0px"
	 viewBox="0 0 500 500" style="enable-background:new 0 0 500 500;" xml:space="preserve">
<style type="text/css">
	.st0{fill:#323277;}
	.st1{font-family:'GillSansMT';}
	.st2{font-size:32.2994px;}
	.st3{font-size:122.0492px;}
	.st4{fill:#C4141A;}
</style>
<text transform="matrix(1 0 0 1 144.5194 474.261)" class="st0 st1 st2">PRE MILITAR</text>
<text transform="matrix(1 0 0 1 54.0341 430.0794)" class="st0 st1 st3">GUIDE</text>
<polygon class="st0" points="408.83,191.32 408.83,235.48 234.22,321.4 59.42,239.56 59.42,196.6 234.12,280.66 "/>
<polygon class="st0" points="29.79,168.08 52.38,175.49 45.26,301.03 37.2,301.03 "/>
<polygon class="st0" points="35.95,301.03 46.32,301.03 54.47,329.92 24.1,329.92 "/>
<polygon class="st4" points="270.51,252.52 488.26,147.71 262.73,46.24 456.05,149.38 "/>
<polygon class="st0" points="416.42,149.38 442.71,149.38 234.12,263.63 23.13,147.71 227.55,48.09 55.71,149.38 232.92,239.93 "/>
</svg>
