<?xml version="1.0" encoding="utf-8"?>
<!-- Generator: Adobe Illustrator 27.4.0, SVG Export Plug-In . SVG Version: 6.00 Build 0)  -->
<svg version="1.1" id="Capa_1" xmlns="http://www.w3.org/2000/svg" xmlns:xlink="http://www.w3.org/1999/xlink" x="0px" y="0px"
	 viewBox="0 0 500 500" style="enable-background:new 0 0 500 500;" xml:space="preserve">
<style type="text/css">
	.st0{enable-background:new    ;}
	.st1{fill:#323277;}
	.st2{fill:#C4141A;}
</style>
<g class="st0">
	<path class="st1" d="M146.8,474.3v-22.1h7c2.1,0,3.8,0.6,5,1.7c1.3,1.1,1.9,2.7,1.9,4.6c0,1.3-0.3,2.4-1,3.4
		c-0.6,1-1.5,1.7-2.6,2.2s-2.7,0.7-4.8,0.7h-2.3v9.6H146.8z M153.2,455h-3.3v6.9h3.5c1.3,0,2.3-0.3,3-0.9s1-1.5,1-2.6
		C157.4,456.1,156,455,153.2,455z"/>
	<path class="st1" d="M163.5,474.3v-22h5.5c2.2,0,4,0.6,5.3,1.7c1.3,1.1,2,2.6,2,4.5c0,1.3-0.3,2.4-1,3.3c-0.6,0.9-1.6,1.6-2.8,2.1
		c0.7,0.5,1.4,1.1,2.1,1.9c0.7,0.8,1.6,2.2,2.8,4.2c0.8,1.3,1.4,2.2,1.8,2.8l1.2,1.6h-3.8l-1-1.5c0-0.1-0.1-0.1-0.2-0.3l-0.6-0.9
		l-1-1.6l-1.1-1.7c-0.7-0.9-1.2-1.6-1.8-2.2c-0.5-0.5-1-0.9-1.5-1.2c-0.4-0.2-1.2-0.4-2.2-0.4h-0.8v9.6H163.5z M167.6,454.9h-0.9v7
		h1.2c1.6,0,2.7-0.1,3.3-0.4c0.6-0.3,1.1-0.7,1.4-1.2c0.3-0.6,0.5-1.2,0.5-1.9c0-0.7-0.2-1.3-0.6-1.9s-0.9-1-1.6-1.2
		C170.3,455,169.2,454.9,167.6,454.9z"/>
	<path class="st1" d="M182.9,452.2h12.5v2.8h-9.3v6.7h9v2.8h-9v6.8h9.6v2.8h-12.8V452.2z"/>
	<path class="st1" d="M225.6,452.2h2.9v22h-3.2v-17.1l-6.8,8.5H218l-6.9-8.5v17.1H208v-22h3l7.3,9L225.6,452.2z"/>
	<path class="st1" d="M233.3,452.2h3.2v22h-3.2V452.2z"/>
	<path class="st1" d="M241.3,452.2h3.2v19.2h9.9v2.9h-13.1V452.2z"/>
	<path class="st1" d="M257.2,452.2h3.2v22h-3.2V452.2z"/>
	<path class="st1" d="M263.4,452.2h18.4v2.8h-7.7v19.3h-3.2V455h-7.6V452.2z"/>
	<path class="st1" d="M288.6,452.1h2.2l9.9,22.2h-3.2l-2.9-6.5h-9.4l-2.8,6.5h-3.2L288.6,452.1z M293.2,464.9l-3.6-8l-3.3,8H293.2z"
		/>
	<path class="st1" d="M303.2,474.3v-22h5.5c2.2,0,4,0.6,5.3,1.7c1.3,1.1,2,2.6,2,4.5c0,1.3-0.3,2.4-1,3.3s-1.6,1.6-2.8,2.1
		c0.7,0.5,1.4,1.1,2.1,1.9c0.7,0.8,1.6,2.2,2.8,4.2c0.8,1.3,1.4,2.2,1.8,2.8l1.2,1.6h-3.8l-1-1.5c0-0.1-0.1-0.1-0.2-0.3l-0.6-0.9
		l-1-1.6l-1.1-1.7c-0.7-0.9-1.2-1.6-1.8-2.2c-0.5-0.5-1-0.9-1.5-1.2c-0.4-0.2-1.2-0.4-2.2-0.4h-0.8v9.6H303.2z M307.3,454.9h-0.9v7
		h1.2c1.6,0,2.7-0.1,3.3-0.4c0.6-0.3,1.1-0.7,1.4-1.2c0.3-0.6,0.5-1.2,0.5-1.9c0-0.7-0.2-1.3-0.6-1.9s-0.9-1-1.6-1.2
		S308.8,454.9,307.3,454.9z"/>
</g>
<g class="st0">
	<path class="st1" d="M108.2,389.1h27.9v35.3c-10.3,4.4-20.4,6.7-30.5,6.7c-13.8,0-24.8-4-33-12.1c-8.2-8-12.4-18-12.4-29.8
		c0-12.4,4.3-22.8,12.8-31c8.5-8.3,19.2-12.4,32.1-12.4c4.7,0,9.1,0.5,13.3,1.5c4.2,1,9.5,2.9,16,5.6V365
		c-9.9-5.8-19.8-8.6-29.6-8.6c-9.1,0-16.8,3.1-23,9.3c-6.2,6.2-9.4,13.8-9.4,22.8c0,9.5,3.1,17.2,9.4,23.2c6.2,6,14.3,9,24.1,9
		c4.8,0,10.5-1.1,17.1-3.3l1.1-0.4v-17.3h-16V389.1z"/>
	<path class="st1" d="M211.5,346.8h12v47.3c0,6.4-0.5,11.2-1.4,14.5c-0.9,3.3-2.1,6-3.5,8.1c-1.4,2.2-3,4.1-5,5.8
		c-6.6,5.7-15.2,8.5-25.9,8.5c-10.8,0-19.5-2.8-26.1-8.5c-2-1.7-3.7-3.7-5-5.9c-1.4-2.2-2.5-4.8-3.4-8c-0.9-3.1-1.3-8.1-1.3-14.8
		v-47.1h12v47.3c0,7.8,0.9,13.3,2.7,16.3c1.8,3.1,4.5,5.5,8.2,7.4c3.7,1.8,8,2.8,12.9,2.8c7.1,0,12.8-1.8,17.3-5.5
		c2.3-2,4-4.3,5.1-7c1-2.7,1.5-7.3,1.5-13.9V346.8z"/>
	<path class="st1" d="M240.1,346.8H252v83.3h-11.9V346.8z"/>
	<path class="st1" d="M270.6,430v-83.1h28.1c11.3,0,20.3,1.7,26.9,5.1c6.6,3.4,11.8,8.4,15.7,15c3.9,6.6,5.8,13.8,5.8,21.6
		c0,5.6-1.1,10.9-3.2,16c-2.1,5.1-5.2,9.6-9.2,13.4c-4.1,4-8.8,7-14.1,9c-3.1,1.2-6,2.1-8.6,2.5s-7.6,0.6-15,0.6H270.6z
		 M297.4,357.4h-14.9v61.9h15.3c6,0,10.6-0.4,13.9-1.2c3.3-0.8,6-1.8,8.3-3.1c2.2-1.3,4.2-2.8,6-4.6c5.9-6,8.8-13.5,8.8-22.6
		c0-8.9-3-16.2-9.1-21.9c-2.2-2.1-4.8-3.8-7.7-5.2c-2.9-1.3-5.6-2.2-8.2-2.7C307.3,357.7,303.1,357.4,297.4,357.4z"/>
	<path class="st1" d="M362,346.8h47.2v10.6h-35.3v25.4H408v10.7h-34.1v25.9h36.4V430H362V346.8z"/>
</g>
<polygon class="st1" points="408.8,191.3 408.8,235.5 234.2,321.4 59.4,239.6 59.4,196.6 234.1,280.7 "/>
<polygon class="st1" points="29.8,168.1 52.4,175.5 45.3,301 37.2,301 "/>
<polygon class="st1" points="36,301 46.3,301 54.5,329.9 24.1,329.9 "/>
<polygon class="st2" points="270.5,252.5 488.3,147.7 262.7,46.2 456,149.4 "/>
<polygon class="st1" points="416.4,149.4 442.7,149.4 234.1,263.6 23.1,147.7 227.6,48.1 55.7,149.4 232.9,239.9 "/>
</svg>
